<?xml version="1.0" encoding="UTF-8"?><svg id="uuid-a9aedb66-c0b0-48e7-a703-173fb49daa75" xmlns="http://www.w3.org/2000/svg" viewBox="0 0 353.9 430.7"><path d="m243.6,430.6c-15.2.6-29-8.1-34-22.3-.6-1.6-1.2-2.6-3.2-2.4-21.7,1.9-43.7,2.5-65.3,0-6.3-1.8-6.4,8.1-11.8,10.1-13.1,10.3-29.9,7.7-44.6,3-21.9-6.3-44.6-10-66.3-16.6-21.3-8.1-20.3-28.8-11.4-46.3,2-10.3-3.3-19.8-5.6-29.5-6.2-17.6,11.7-27.6,27.3-25.7,6.6-1.1,10.6-7.7,15.8-11.4,4.2-29.9,16.6-58.2,31.2-84.8.6-5.6-15.5-7.9-20-11.6C26,178.7,6.4,148.9,2.3,116.6c-3.6-24.6.6-52.3,16.6-72,4.7-6.3,21.9-22.1,28.3-14.4-1.8,22.7-2,47.7,11.8,67.1,7.6,12.6,44.1,41.5,52,18.2,1.1-30.6-8.1-67.1,14.9-93.3C145-1.9,182.4-5.3,209.1,6.8c27.4,11.4,37.2,42.4,37.7,69.9-1,82.9-6.9,55.3,41.7,119.8,16.1,22.6,20.6,50.3,19.9,77.5,0,1-.4,2.2,1.3,2.5,12.3,2.8,9,18.3,11.5,27.6-1.2,27.9,53.7,28.2,23.8,64.6-16.7,13.8-37.1,22.2-53.5,36.6-14.5,10.3-28.7,26.7-47.9,25.4Z" fill="#081314"/><path d="m149.3,274.3c.4,0,.8.1,2.1.3-21.4,10.6-30.4,28-30.4,50.8h19.4c.7-14.2,4.2-26.8,19.7-32.8-.8,10.6-.6,20.3-.6,30.8.9,4.9,14.6,1,19.2,2.2v-32.7c12,4.5,18.9,17.5,18.6,30,.6,5.8,13.6,1.4,18.6,2.7-2,11.2-1.5,42.5-9.8,48.5-21.1,8.9-45.2,10.6-67.5,5.8-21.6-32.4-40.8-69.2-67.3-97.9-1.1-24.5,11.8-49,24.2-69.9,11.2-18.8,18.2-39.9,27.5-59.5,21.4,28.7,65.3,17.8,89.1-2.1,5.1,17.7,10.8,35.4,20.3,51.3,6.1,9.5,12.6,19.3,13.5,30.8.9,13.4,4.4,35.9-9.3,43.3-21.4,1.3-15.7,24.4-19.7,37.8-3.4-17.1-12.4-31.5-28.4-39.4h28.2c1.1-29.6.4-17.4-30.5-19.8,22.3-9.9,30.4-28.2,30.7-51.4h-19.5c.7,12.8-6.4,29.3-19.4,32.5.8-10.9,1.1-21.5.9-32.5h-19.2v32.3c-11.4-.7-20.4-20.6-19.7-32.4-5.1,1.2-16.8-2.6-18.9,1.9-.7,21.6,10.7,39.8,29.7,49.6-5.8,1.7-28.2-3.3-28.7,2.8-1.1,25.9,1,14.8,27.4,17Z" fill="#fff"/><path d="m307,289.2c-7.2,45.2,45.2,48.6,29.1,69.6-96,66.1-133.2,105-104.4-46.6,7.1-77.3-2.7,77.5,65.8-20.5,2-3.9,6-3.2,9.4-2.6Z" fill="#f9b523"/><path d="m107,409.8c-24.9-8-80.4-9.5-93.5-30.3,2-11.9,11.1-22.8,6-35.7-17.9-47.8,11.7-13.6,39.5-49,16.5,1.2,29,38.3,41.8,51.3,10.9,18.1,47.4,60.1,6.2,63.8Z" fill="#f9b523"/><path d="m134.1,149c3.4.9,6.5,1.6,9.5,2.4,9.6,2.8,19,1.2,28.3-1.3,10.7-2.9,20-8.4,28.4-15.6,1.1-.9,2-2.3,2.4-3.6.3-1.1.1-3-.6-3.6-1-.7-3-1-4-.5-2.2,1.1-4.3,2.6-6.2,4.2-8.6,7.2-18.3,11.8-29.6,13.4-13.7,2-25.8-2.3-37.1-9.4-3.3-2.1-6.6-4.3-10-6.5,4.1-6,9.2-10.7,14.9-14.7,6.7-4.8,13.9-8.6,22.1-10.3,6.5-1.3,12.7-.4,18.9,1.6,12,3.9,23.7,8.5,34.8,14.6,2.1,1.1,4.2,2.4,5.8,4.1,2.6,2.8,2,6.3.5,9.5-2.4,5-6.3,8.6-10.6,11.8-10.8,8-22.9,13-36.4,14.7-7.5.9-14.7,0-21.6-2.5-3.6-1.3-6.5-3.7-9-6.6-.2-.3-.2-.7-.4-1.4Z" fill="#f9b523"/><path d="m210.4,109.1c-3.2-1.2-6-2.3-8.9-3.4,13.7-40.8-29.1-35.6-19.7-7.9-3.2-1.1-6.1-1.7-8.6-3.1-11.9-43.8,54.3-49.8,37.2,14.3Z" fill="#fff"/><path d="m154,94.6c-1.9.2-3.8.4-5.5.6-1.6-30.9-28-16.5-17.4,5.9-2.5,1.1-4.9,2.2-7.6,3.4-11.9-52.1,36.3-54.5,30.5-9.9Z" fill="#fff"/></svg>